<svg width="100%" height="100%" id="svg" viewBox="0 0 1440 400" xmlns="http://www.w3.org/2000/svg" class="transition duration-300 ease-in-out delay-150"><defs><linearGradient id="gradient" x1="73%" y1="6%" x2="27%" y2="94%"><stop offset="5%" stop-color="#abb8c3"></stop><stop offset="95%" stop-color="#00d084"></stop></linearGradient></defs><path d="M 0,400 C 0,400 0,133 0,133 C 47.25216104047159,148.71277326918502 94.50432208094318,164.42554653837004 146,148 C 197.49567791905682,131.57445346162996 253.23487271669882,83.01058711570488 301,87 C 348.7651272833012,90.98941288429512 388.5561870522615,147.53210499881044 424,152 C 459.4438129477385,156.46789500118956 490.54037907425516,108.86099288905336 549,90 C 607.4596209257448,71.13900711094664 693.2822966507177,81.02392344497608 742,100 C 790.7177033492823,118.97607655502392 802.330434322874,147.04331333104233 838,162 C 873.669565677126,176.95668666895767 933.3959660577862,178.80282323085464 997,175 C 1060.6040339422138,171.19717676914536 1128.0857014459807,161.7453937455391 1175,159 C 1221.9142985540193,156.2546062544609 1248.2612281582913,160.21560178698883 1289,157 C 1329.7387718417087,153.78439821301117 1384.8693859208543,143.3921991065056 1440,133 C 1440,133 1440,400 1440,400 Z" stroke="none" stroke-width="0" fill="url(#gradient)" fill-opacity="0.53" class="transition-all duration-300 ease-in-out delay-150 path-0"></path><defs><linearGradient id="gradient" x1="73%" y1="6%" x2="27%" y2="94%"><stop offset="5%" stop-color="#abb8c3"></stop><stop offset="95%" stop-color="#00d084"></stop></linearGradient></defs><path d="M 0,400 C 0,400 0,266 0,266 C 56.6469243173227,275.7271669882894 113.2938486346454,285.4543339765788 156,297 C 198.7061513653546,308.5456660234212 227.47152977874111,321.9098310819741 276,306 C 324.5284702212589,290.0901689180259 392.82003225039006,244.9063416955246 442,250 C 491.17996774960994,255.0936583044754 521.248341219699,310.46480213592747 564,308 C 606.751658780301,305.53519786407253 662.1866028708134,245.23444976076559 718,233 C 773.8133971291866,220.76555023923441 830.0052472970472,256.59739882101036 876,274 C 921.9947527029528,291.40260117898964 957.7924079409979,290.3759549551931 997,290 C 1036.207592059002,289.6240450448069 1078.8251209389618,289.8987813582172 1132,282 C 1185.1748790610382,274.1012186417828 1248.9071083031536,258.0289196119379 1302,254 C 1355.0928916968464,249.97108038806206 1397.5464458484232,257.98554019403105 1440,266 C 1440,266 1440,400 1440,400 Z" stroke="none" stroke-width="0" fill="url(#gradient)" fill-opacity="1" class="transition-all duration-300 ease-in-out delay-150 path-1"></path></svg>